<svg width="12" height="20" viewBox="0 0 12 20" fill="none" xmlns="http://www.w3.org/2000/svg">
<path d="M6.19562 20C6.09159 20.0001 5.99175 19.9588 5.91819 19.8853C5.84464 19.8117 5.80335 19.7119 5.80347 19.6079V9.80393C5.80347 9.64534 5.89901 9.50233 6.04554 9.44167C6.19206 9.38096 6.36073 9.41452 6.47288 9.52671L11.1788 14.2326C11.3275 14.3815 11.3324 14.6213 11.1897 14.7761L6.48378 19.8741C6.40948 19.9544 6.30503 20 6.19562 20ZM6.5878 10.7506V18.6049L10.3577 14.5206L6.5878 10.7506Z" fill="black"/>
<path d="M6.19562 10.5882C6.09159 10.5883 5.99175 10.547 5.91819 10.4735C5.84464 10.3999 5.80335 10.3001 5.80347 10.1961V0.392146C5.80347 0.233551 5.89901 0.0905434 6.04554 0.0298792C6.19206 -0.030824 6.36073 0.00273073 6.47288 0.114918L11.1788 4.82083C11.3275 4.96973 11.3324 5.2095 11.1897 5.36426L6.48378 10.4623C6.40948 10.5426 6.30503 10.5882 6.19562 10.5882ZM6.5878 1.33883V9.1931L10.3577 5.1088L6.5878 1.33883Z" fill="black"/>
<path d="M6.58783 10.5882C6.48381 10.5884 6.38404 10.547 6.31057 10.4734L0.820361 4.98315C0.669579 4.82963 0.670712 4.5833 0.822861 4.43115C0.975009 4.279 1.22134 4.27787 1.37485 4.42865L6.86506 9.91886C6.97717 10.031 7.01072 10.1996 6.95002 10.3462C6.88936 10.4926 6.74639 10.5882 6.58783 10.5882Z" fill="black"/>
<path d="M1.09778 15.6863C0.939188 15.6863 0.796258 15.5907 0.735555 15.4442C0.674852 15.2977 0.708407 15.129 0.820516 15.0169L6.31071 9.52669C6.46423 9.37591 6.71055 9.37704 6.8627 9.52919C7.01485 9.68134 7.01598 9.92767 6.8652 10.0812L1.37501 15.5714C1.30157 15.6451 1.2018 15.6864 1.09778 15.6863Z" fill="black"/>
</svg>
