<svg width="206" height="206" viewBox="0 0 206 206" fill="none" xmlns="http://www.w3.org/2000/svg">
<g filter="url(#filter0_d)">
<path fill-rule="evenodd" clip-rule="evenodd" d="M85.4307 20H120.569C156.92 20 186 49.0803 186 85.4307V120.569C186 156.92 156.92 186 120.569 186H85.4307C49.0803 186 20 156.92 20 120.569V85.4307C20 49.0803 49.0803 20 85.4307 20ZM89.0657 36.9635H116.934C146.015 36.9635 169.036 59.9854 169.036 89.0657V116.934C169.036 146.015 146.015 169.036 116.934 169.036H89.0657C59.9854 169.036 36.9635 146.015 36.9635 116.934V89.0657C36.9635 59.9854 59.9854 36.9635 89.0657 36.9635Z" fill="white"/>
</g>
<defs>
<filter id="filter0_d" x="0" y="0" width="206" height="206" filterUnits="userSpaceOnUse" color-interpolation-filters="sRGB">
<feFlood flood-opacity="0" result="BackgroundImageFix"/>
<feColorMatrix in="SourceAlpha" type="matrix" values="0 0 0 0 0 0 0 0 0 0 0 0 0 0 0 0 0 0 127 0"/>
<feOffset/>
<feGaussianBlur stdDeviation="10"/>
<feColorMatrix type="matrix" values="0 0 0 0 1 0 0 0 0 1 0 0 0 0 1 0 0 0 1 0"/>
<feBlend mode="normal" in2="BackgroundImageFix" result="effect1_dropShadow"/>
<feBlend mode="normal" in="SourceGraphic" in2="effect1_dropShadow" result="shape"/>
</filter>
</defs>
</svg>
