<svg width="22" height="22" viewBox="0 0 22 22" fill="none" xmlns="http://www.w3.org/2000/svg">
<path d="M13.1168 0.75H8.88321C4.36558 0.75 0.75 4.36558 0.75 8.88321V13.1168C0.75 17.6344 4.36558 21.25 8.88321 21.25H13.1168C17.6344 21.25 21.25 17.6344 21.25 13.1168V8.88321C21.25 4.36558 17.6344 0.75 13.1168 0.75ZM9.0292 2.2719H12.9708C16.7743 2.2719 19.7281 5.22566 19.7281 9.0292V12.9708C19.7281 16.6318 16.771 19.7281 12.9708 19.7281H9.0292C5.37165 19.7281 2.2719 16.6284 2.2719 12.9708V9.0292C2.2719 5.22904 5.36824 2.2719 9.0292 2.2719Z" fill="black" stroke="black" stroke-width="0.5"/>
</svg>
