<svg width="22" height="22" viewBox="0 0 22 22" fill="none" xmlns="http://www.w3.org/2000/svg">
<mask id="path-1-outside-1" maskUnits="userSpaceOnUse" x="0" y="0" width="22" height="22" fill="black">
<rect fill="white" width="22" height="22"/>
<path d="M11.6276 21H10.3724C9.35719 21 8.53121 20.1741 8.53121 19.1589V18.7342C8.09961 18.5963 7.68027 18.4223 7.27742 18.2138L6.97648 18.5147C6.24762 19.2445 5.08008 19.2231 4.37238 18.5145L3.48523 17.6273C2.77629 16.9192 2.7559 15.752 3.48547 15.0232L3.78617 14.7225C3.5777 14.3197 3.40367 13.9004 3.26574 13.4688H2.84113C1.82598 13.4688 1 12.6428 1 11.6276V10.3724C1 9.35719 1.82598 8.53125 2.84117 8.53125H3.26578C3.40371 8.09961 3.57773 7.68031 3.78621 7.27746L3.48527 6.97656C2.75613 6.2482 2.77625 5.08094 3.48551 4.37246L4.37273 3.48527C5.08207 2.77496 6.24934 2.75723 6.9768 3.48551L7.27746 3.78617C7.68031 3.57773 8.09965 3.40367 8.53125 3.26574V2.84113C8.53125 1.82594 9.35719 1 10.3724 1H11.6276C12.6428 1 13.4688 1.82594 13.4688 2.84113V3.26578C13.9004 3.40367 14.3197 3.57773 14.7225 3.78621L15.0235 3.48527C15.7523 2.75551 16.9199 2.77691 17.6276 3.48555L18.5147 4.37266C19.2237 5.08082 19.2441 6.24797 18.5145 6.97676L18.2138 7.27746C18.4223 7.68031 18.5963 8.09957 18.7342 8.53125H19.1588C20.174 8.53125 21 9.35719 21 10.3724V11.6276C21 12.6428 20.174 13.4688 19.1588 13.4688H18.7342C18.5963 13.9004 18.4223 14.3197 18.2138 14.7225L18.5147 15.0235C19.2439 15.7518 19.2237 16.9191 18.5145 17.6276L17.6273 18.5148C16.9179 19.2251 15.7507 19.2428 15.0232 18.5145L14.7225 18.2139C14.3197 18.4223 13.9004 18.5964 13.4688 18.7343V19.1589C13.4688 20.1741 12.6428 21 11.6276 21ZM7.47332 16.9832C8.03297 17.3142 8.63531 17.5642 9.26359 17.7264C9.52234 17.7931 9.70312 18.0265 9.70312 18.2937V19.1589C9.70312 19.5279 10.0034 19.8281 10.3724 19.8281H11.6276C11.9966 19.8281 12.2969 19.5279 12.2969 19.1589V18.2937C12.2969 18.0265 12.4777 17.7931 12.7364 17.7264C13.3647 17.5642 13.9671 17.3142 14.5267 16.9832C14.757 16.847 15.0502 16.8841 15.2393 17.0732L15.8521 17.6861C16.1164 17.9506 16.5407 17.9445 16.7984 17.6864L17.6862 16.7986C17.9433 16.5418 17.9519 16.1175 17.6864 15.8523L17.0733 15.2393C16.8842 15.0501 16.8471 14.7569 16.9833 14.5267C17.3143 13.9671 17.5643 13.3647 17.7264 12.7364C17.7932 12.4777 18.0266 12.2969 18.2938 12.2969H19.1589C19.5279 12.2969 19.8282 11.9967 19.8282 11.6277V10.3724C19.8282 10.0034 19.5279 9.70316 19.1589 9.70316H18.2938C18.0265 9.70316 17.7932 9.52238 17.7264 9.26367C17.5643 8.63535 17.3142 8.03301 16.9833 7.4734C16.8471 7.24316 16.8842 6.94996 17.0733 6.76082L17.6862 6.14797C17.9511 5.88336 17.9442 5.45914 17.6864 5.20168L16.7987 4.31398C16.5414 4.05633 16.117 4.04879 15.8524 4.31375L15.2394 4.92684C15.0502 5.11602 14.757 5.15305 14.5268 5.01688C13.9671 4.6859 13.3648 4.43586 12.7365 4.27371C12.4777 4.20695 12.297 3.97359 12.297 3.70637V2.84113C12.297 2.47211 11.9967 2.17188 11.6277 2.17188H10.3725C10.0034 2.17188 9.70316 2.47211 9.70316 2.84113V3.70629C9.70316 3.97352 9.52238 4.20688 9.26363 4.27363C8.63535 4.43578 8.03301 4.68582 7.47336 5.0168C7.24305 5.15293 6.94988 5.1159 6.76074 4.92676L6.14793 4.31391C5.88371 4.04938 5.45938 4.05551 5.20168 4.31363L4.31391 5.20137C4.0568 5.45816 4.0482 5.8825 4.31367 6.14766L4.92676 6.76074C5.1159 6.94988 5.15293 7.24309 5.0168 7.47332C4.68582 8.03293 4.43582 8.63527 4.27367 9.26359C4.20688 9.52234 3.97352 9.70309 3.70633 9.70309H2.84117C2.47215 9.70312 2.17188 10.0034 2.17188 10.3724V11.6276C2.17188 11.9966 2.47215 12.2969 2.84117 12.2969H3.70629C3.97352 12.2969 4.20684 12.4777 4.27363 12.7364C4.43578 13.3647 4.68582 13.967 5.01676 14.5266C5.15289 14.7569 5.11586 15.0501 4.92672 15.2392L4.31387 15.8521C4.04895 16.1167 4.05586 16.5409 4.31363 16.7984L5.20133 17.6861C5.45863 17.9437 5.88301 17.9513 6.14762 17.6863L6.76066 17.0732C6.90004 16.9339 7.19 16.8156 7.47332 16.9832Z"/>
</mask>
<path d="M11.6276 21H10.3724C9.35719 21 8.53121 20.1741 8.53121 19.1589V18.7342C8.09961 18.5963 7.68027 18.4223 7.27742 18.2138L6.97648 18.5147C6.24762 19.2445 5.08008 19.2231 4.37238 18.5145L3.48523 17.6273C2.77629 16.9192 2.7559 15.752 3.48547 15.0232L3.78617 14.7225C3.5777 14.3197 3.40367 13.9004 3.26574 13.4688H2.84113C1.82598 13.4688 1 12.6428 1 11.6276V10.3724C1 9.35719 1.82598 8.53125 2.84117 8.53125H3.26578C3.40371 8.09961 3.57773 7.68031 3.78621 7.27746L3.48527 6.97656C2.75613 6.2482 2.77625 5.08094 3.48551 4.37246L4.37273 3.48527C5.08207 2.77496 6.24934 2.75723 6.9768 3.48551L7.27746 3.78617C7.68031 3.57773 8.09965 3.40367 8.53125 3.26574V2.84113C8.53125 1.82594 9.35719 1 10.3724 1H11.6276C12.6428 1 13.4688 1.82594 13.4688 2.84113V3.26578C13.9004 3.40367 14.3197 3.57773 14.7225 3.78621L15.0235 3.48527C15.7523 2.75551 16.9199 2.77691 17.6276 3.48555L18.5147 4.37266C19.2237 5.08082 19.2441 6.24797 18.5145 6.97676L18.2138 7.27746C18.4223 7.68031 18.5963 8.09957 18.7342 8.53125H19.1588C20.174 8.53125 21 9.35719 21 10.3724V11.6276C21 12.6428 20.174 13.4688 19.1588 13.4688H18.7342C18.5963 13.9004 18.4223 14.3197 18.2138 14.7225L18.5147 15.0235C19.2439 15.7518 19.2237 16.9191 18.5145 17.6276L17.6273 18.5148C16.9179 19.2251 15.7507 19.2428 15.0232 18.5145L14.7225 18.2139C14.3197 18.4223 13.9004 18.5964 13.4688 18.7343V19.1589C13.4688 20.1741 12.6428 21 11.6276 21ZM7.47332 16.9832C8.03297 17.3142 8.63531 17.5642 9.26359 17.7264C9.52234 17.7931 9.70312 18.0265 9.70312 18.2937V19.1589C9.70312 19.5279 10.0034 19.8281 10.3724 19.8281H11.6276C11.9966 19.8281 12.2969 19.5279 12.2969 19.1589V18.2937C12.2969 18.0265 12.4777 17.7931 12.7364 17.7264C13.3647 17.5642 13.9671 17.3142 14.5267 16.9832C14.757 16.847 15.0502 16.8841 15.2393 17.0732L15.8521 17.6861C16.1164 17.9506 16.5407 17.9445 16.7984 17.6864L17.6862 16.7986C17.9433 16.5418 17.9519 16.1175 17.6864 15.8523L17.0733 15.2393C16.8842 15.0501 16.8471 14.7569 16.9833 14.5267C17.3143 13.9671 17.5643 13.3647 17.7264 12.7364C17.7932 12.4777 18.0266 12.2969 18.2938 12.2969H19.1589C19.5279 12.2969 19.8282 11.9967 19.8282 11.6277V10.3724C19.8282 10.0034 19.5279 9.70316 19.1589 9.70316H18.2938C18.0265 9.70316 17.7932 9.52238 17.7264 9.26367C17.5643 8.63535 17.3142 8.03301 16.9833 7.4734C16.8471 7.24316 16.8842 6.94996 17.0733 6.76082L17.6862 6.14797C17.9511 5.88336 17.9442 5.45914 17.6864 5.20168L16.7987 4.31398C16.5414 4.05633 16.117 4.04879 15.8524 4.31375L15.2394 4.92684C15.0502 5.11602 14.757 5.15305 14.5268 5.01688C13.9671 4.6859 13.3648 4.43586 12.7365 4.27371C12.4777 4.20695 12.297 3.97359 12.297 3.70637V2.84113C12.297 2.47211 11.9967 2.17188 11.6277 2.17188H10.3725C10.0034 2.17188 9.70316 2.47211 9.70316 2.84113V3.70629C9.70316 3.97352 9.52238 4.20688 9.26363 4.27363C8.63535 4.43578 8.03301 4.68582 7.47336 5.0168C7.24305 5.15293 6.94988 5.1159 6.76074 4.92676L6.14793 4.31391C5.88371 4.04938 5.45938 4.05551 5.20168 4.31363L4.31391 5.20137C4.0568 5.45816 4.0482 5.8825 4.31367 6.14766L4.92676 6.76074C5.1159 6.94988 5.15293 7.24309 5.0168 7.47332C4.68582 8.03293 4.43582 8.63527 4.27367 9.26359C4.20688 9.52234 3.97352 9.70309 3.70633 9.70309H2.84117C2.47215 9.70312 2.17188 10.0034 2.17188 10.3724V11.6276C2.17188 11.9966 2.47215 12.2969 2.84117 12.2969H3.70629C3.97352 12.2969 4.20684 12.4777 4.27363 12.7364C4.43578 13.3647 4.68582 13.967 5.01676 14.5266C5.15289 14.7569 5.11586 15.0501 4.92672 15.2392L4.31387 15.8521C4.04895 16.1167 4.05586 16.5409 4.31363 16.7984L5.20133 17.6861C5.45863 17.9437 5.88301 17.9513 6.14762 17.6863L6.76066 17.0732C6.90004 16.9339 7.19 16.8156 7.47332 16.9832Z" fill="black"/>
<path d="M11.6276 21H10.3724C9.35719 21 8.53121 20.1741 8.53121 19.1589V18.7342C8.09961 18.5963 7.68027 18.4223 7.27742 18.2138L6.97648 18.5147C6.24762 19.2445 5.08008 19.2231 4.37238 18.5145L3.48523 17.6273C2.77629 16.9192 2.7559 15.752 3.48547 15.0232L3.78617 14.7225C3.5777 14.3197 3.40367 13.9004 3.26574 13.4688H2.84113C1.82598 13.4688 1 12.6428 1 11.6276V10.3724C1 9.35719 1.82598 8.53125 2.84117 8.53125H3.26578C3.40371 8.09961 3.57773 7.68031 3.78621 7.27746L3.48527 6.97656C2.75613 6.2482 2.77625 5.08094 3.48551 4.37246L4.37273 3.48527C5.08207 2.77496 6.24934 2.75723 6.9768 3.48551L7.27746 3.78617C7.68031 3.57773 8.09965 3.40367 8.53125 3.26574V2.84113C8.53125 1.82594 9.35719 1 10.3724 1H11.6276C12.6428 1 13.4688 1.82594 13.4688 2.84113V3.26578C13.9004 3.40367 14.3197 3.57773 14.7225 3.78621L15.0235 3.48527C15.7523 2.75551 16.9199 2.77691 17.6276 3.48555L18.5147 4.37266C19.2237 5.08082 19.2441 6.24797 18.5145 6.97676L18.2138 7.27746C18.4223 7.68031 18.5963 8.09957 18.7342 8.53125H19.1588C20.174 8.53125 21 9.35719 21 10.3724V11.6276C21 12.6428 20.174 13.4688 19.1588 13.4688H18.7342C18.5963 13.9004 18.4223 14.3197 18.2138 14.7225L18.5147 15.0235C19.2439 15.7518 19.2237 16.9191 18.5145 17.6276L17.6273 18.5148C16.9179 19.2251 15.7507 19.2428 15.0232 18.5145L14.7225 18.2139C14.3197 18.4223 13.9004 18.5964 13.4688 18.7343V19.1589C13.4688 20.1741 12.6428 21 11.6276 21ZM7.47332 16.9832C8.03297 17.3142 8.63531 17.5642 9.26359 17.7264C9.52234 17.7931 9.70312 18.0265 9.70312 18.2937V19.1589C9.70312 19.5279 10.0034 19.8281 10.3724 19.8281H11.6276C11.9966 19.8281 12.2969 19.5279 12.2969 19.1589V18.2937C12.2969 18.0265 12.4777 17.7931 12.7364 17.7264C13.3647 17.5642 13.9671 17.3142 14.5267 16.9832C14.757 16.847 15.0502 16.8841 15.2393 17.0732L15.8521 17.6861C16.1164 17.9506 16.5407 17.9445 16.7984 17.6864L17.6862 16.7986C17.9433 16.5418 17.9519 16.1175 17.6864 15.8523L17.0733 15.2393C16.8842 15.0501 16.8471 14.7569 16.9833 14.5267C17.3143 13.9671 17.5643 13.3647 17.7264 12.7364C17.7932 12.4777 18.0266 12.2969 18.2938 12.2969H19.1589C19.5279 12.2969 19.8282 11.9967 19.8282 11.6277V10.3724C19.8282 10.0034 19.5279 9.70316 19.1589 9.70316H18.2938C18.0265 9.70316 17.7932 9.52238 17.7264 9.26367C17.5643 8.63535 17.3142 8.03301 16.9833 7.4734C16.8471 7.24316 16.8842 6.94996 17.0733 6.76082L17.6862 6.14797C17.9511 5.88336 17.9442 5.45914 17.6864 5.20168L16.7987 4.31398C16.5414 4.05633 16.117 4.04879 15.8524 4.31375L15.2394 4.92684C15.0502 5.11602 14.757 5.15305 14.5268 5.01688C13.9671 4.6859 13.3648 4.43586 12.7365 4.27371C12.4777 4.20695 12.297 3.97359 12.297 3.70637V2.84113C12.297 2.47211 11.9967 2.17188 11.6277 2.17188H10.3725C10.0034 2.17188 9.70316 2.47211 9.70316 2.84113V3.70629C9.70316 3.97352 9.52238 4.20688 9.26363 4.27363C8.63535 4.43578 8.03301 4.68582 7.47336 5.0168C7.24305 5.15293 6.94988 5.1159 6.76074 4.92676L6.14793 4.31391C5.88371 4.04938 5.45938 4.05551 5.20168 4.31363L4.31391 5.20137C4.0568 5.45816 4.0482 5.8825 4.31367 6.14766L4.92676 6.76074C5.1159 6.94988 5.15293 7.24309 5.0168 7.47332C4.68582 8.03293 4.43582 8.63527 4.27367 9.26359C4.20688 9.52234 3.97352 9.70309 3.70633 9.70309H2.84117C2.47215 9.70312 2.17188 10.0034 2.17188 10.3724V11.6276C2.17188 11.9966 2.47215 12.2969 2.84117 12.2969H3.70629C3.97352 12.2969 4.20684 12.4777 4.27363 12.7364C4.43578 13.3647 4.68582 13.967 5.01676 14.5266C5.15289 14.7569 5.11586 15.0501 4.92672 15.2392L4.31387 15.8521C4.04895 16.1167 4.05586 16.5409 4.31363 16.7984L5.20133 17.6861C5.45863 17.9437 5.88301 17.9513 6.14762 17.6863L6.76066 17.0732C6.90004 16.9339 7.19 16.8156 7.47332 16.9832Z" stroke="black" stroke-width="0.4" mask="url(#path-1-outside-1)"/>
</svg>
