<svg width="24" height="20" viewBox="0 0 24 20" fill="none" xmlns="http://www.w3.org/2000/svg">
<path fill-rule="evenodd" clip-rule="evenodd" d="M9.69231 0H14.0559C18.2517 0 21.6084 3.36889 21.7762 7.41157L23.1189 6.23245C23.2867 6.06401 23.6224 6.06401 23.7902 6.23245C23.958 6.4009 23.958 6.73779 23.7902 6.90623L21.6084 8.92757C21.6084 8.92757 21.6084 8.92757 21.6084 9.09601C21.6084 9.09601 21.4406 9.09601 21.2727 9.09601C21.1049 9.09601 21.1049 9.09601 20.9371 9.09601C20.9371 8.92757 20.9371 8.92757 20.9371 8.92757L18.7552 6.90623C18.5874 6.73779 18.5874 6.4009 18.7552 6.23245C19.0909 6.06401 19.2587 6.06401 19.5944 6.23245L20.7692 7.58001C20.6014 3.87423 17.5804 1.01067 13.8881 1.01067H10.028C6.16783 1.01067 2.97902 4.21112 2.97902 8.08534H1.97203V7.74845C1.97203 3.53734 5.4965 0 9.69231 0ZM0.797203 13.644L1.97203 12.4649C2.13986 16.5076 5.66434 19.8765 9.69231 19.8765H14.0559C18.2517 19.8765 21.7762 16.3391 21.7762 12.128V11.7911H20.7692C20.7692 15.6654 17.7483 18.8658 13.8881 18.8658H10.028C6.33566 18.8658 3.14685 16.0022 2.97902 12.2965L4.32168 13.644C4.48951 13.8125 4.82517 13.8125 4.99301 13.644C5.16084 13.4756 5.16084 13.1387 4.99301 12.9702L2.97902 10.7805C2.81119 10.7805 2.64336 10.612 2.64336 10.612H2.47552C2.47552 10.612 2.30769 10.7805 2.13986 10.7805L0.125874 12.9702C-0.041958 13.1387 -0.041958 13.4756 0.125874 13.644C0.293706 13.8125 0.629371 13.8125 0.797203 13.644ZM2.47552 11.7911H2.64336H2.47552Z" fill="black"/>
</svg>
