<svg width="24" height="20" viewBox="0 0 24 20" fill="none" xmlns="http://www.w3.org/2000/svg">
<path fill-rule="evenodd" clip-rule="evenodd" d="M9.7343 0.0617693L14.0979 0.06177C18.2937 0.0617708 21.6504 3.43066 21.8182 7.47334L23.1609 6.29422C23.3287 6.12578 23.6644 6.12578 23.8322 6.29422C24 6.46267 24 6.79956 23.8322 6.968L21.6504 8.98934C21.6504 8.98934 21.6504 8.98934 21.6504 9.15778C21.6504 9.15778 21.4825 9.15778 21.3147 9.15778C21.1469 9.15778 21.1469 9.15778 20.9791 9.15778C20.9791 8.98934 20.9791 8.98934 20.9791 8.98934L18.7972 6.968C18.6294 6.79956 18.6294 6.46267 18.7972 6.29422C19.1329 6.12578 19.3007 6.12578 19.6364 6.29422L20.8112 7.64178C20.6434 3.936 17.6224 1.07244 13.9301 1.07244L10.07 1.07244C6.20982 1.07244 3.02101 4.27288 3.02101 8.14711L2.01402 8.14711L2.01402 7.81022C2.01402 3.59911 5.5385 0.0617685 9.7343 0.0617693ZM0.839193 13.7058L2.01402 12.5267C2.18185 16.5693 5.70632 19.9382 9.7343 19.9382L14.0979 19.9382C18.2937 19.9382 21.8182 16.4009 21.8182 12.1898L21.8182 11.8529L20.8112 11.8529C20.8112 15.7271 17.7902 18.9276 13.9301 18.9276L10.07 18.9276C6.37765 18.9276 3.18884 16.064 3.02101 12.3582L4.36367 13.7058C4.5315 13.8742 4.86716 13.8742 5.035 13.7058C5.20283 13.5373 5.20283 13.2005 5.035 13.032L3.02101 10.8422C2.85318 10.8422 2.68535 10.6738 2.68535 10.6738L2.51751 10.6738C2.51751 10.6738 2.34968 10.8422 2.18185 10.8422L0.167864 13.032C3.18488e-05 13.2005 3.17899e-05 13.5373 0.167864 13.7058C0.335696 13.8742 0.67136 13.8742 0.839193 13.7058ZM2.51751 11.8529L2.68535 11.8529L2.51751 11.8529Z" fill="#F2E6C5"/>
</svg>
