<svg width="14" height="20" viewBox="0 0 14 20" fill="none" xmlns="http://www.w3.org/2000/svg">
<path d="M7.24272 0.222465C7.04042 -0.074094 6.5437 -0.074094 6.34276 0.222465C6.08422 0.606111 0 9.63032 0 13.2073C0 16.9518 3.04861 19.9998 6.79254 19.9998C10.5371 19.9998 13.5853 16.9516 13.5853 13.2073C13.5857 9.63032 7.50107 0.605141 7.24272 0.222465ZM6.79274 18.9131C3.64657 18.9131 1.08713 16.3552 1.08713 13.2073C1.08713 10.7254 4.86171 4.45556 6.79274 1.5084C8.72435 4.45556 12.4987 10.7233 12.4987 13.2073C12.4987 16.3552 9.93852 18.9131 6.79274 18.9131Z" fill="black"/>
</svg>
